<?xml version="1.0" encoding="UTF-8"?>
<svg version="1.1" xmlns="http://www.w3.org/2000/svg" width="500" height="500">
<path d="M0 0 C1.01449219 -0.01611328 2.02898437 -0.03222656 3.07421875 -0.04882812 C4.52634766 -0.04979492 4.52634766 -0.04979492 6.0078125 -0.05078125 C6.89355957 -0.05376221 7.77930664 -0.05674316 8.69189453 -0.05981445 C9.41231934 0.06304932 10.13274414 0.18591309 10.875 0.3125 C13.35374138 4.03061206 13.12463569 5.89355357 13.12388897 10.33629417 C13.12649625 11.05919329 13.12910354 11.7820924 13.13178983 12.52689755 C13.13812505 14.96808183 13.13010501 17.4090123 13.12223816 19.85018921 C13.12382528 21.61050564 13.12628791 23.37082147 13.12955457 25.13113558 C13.13599006 29.98320594 13.12988295 34.83519332 13.12179029 39.68725824 C13.11522982 44.91434662 13.12015818 50.14142547 13.12367249 55.36851501 C13.12872247 65.61481521 13.12306266 75.86108322 13.11382218 86.10737942 C13.10345392 98.03159946 13.10350796 109.95581249 13.10399476 121.88003619 C13.10449579 143.15277833 13.09532325 164.42550546 13.08081055 185.69824219 C13.06672588 206.35416945 13.05963959 227.01008349 13.06030273 247.66601562 C13.06036267 249.57376351 13.06036267 249.57376351 13.06042381 251.52005176 C13.06048435 253.42445447 13.06048435 253.42445447 13.0605461 255.36732996 C13.06123563 278.85988575 13.05534721 302.35243592 13.04639288 325.84498989 C13.04337361 334.16228892 13.04231297 342.47958692 13.04186058 350.79688644 C13.04117904 360.93060665 13.03672276 371.06431737 13.02752777 381.19803356 C13.02290459 386.37120784 13.01986619 391.54436997 13.02112198 396.71754646 C13.02221505 401.44984739 13.01871062 406.18212143 13.01147345 410.91441675 C13.0096566 412.62974693 13.00953324 414.34507989 13.01124074 416.06041019 C13.01329997 418.3859801 13.00925138 420.71146136 13.00363445 423.03702354 C13.00293003 424.33062337 13.0022256 425.6242232 13.00149983 426.95702302 C12.89134937 429.87882401 12.55690916 432.47752147 11.875 435.3125 C-6.6761811 437.25738189 -6.6761811 437.25738189 -13.125 435.3125 C-15.87839703 431.64979821 -16.46696555 429.19349577 -16.20320988 424.66589165 C-16.14892824 423.53605012 -16.09464661 422.40620859 -16.03872007 421.24212945 C-15.96640891 420.00600816 -15.89409775 418.76988688 -15.81959534 417.49630737 C-15.68898739 414.75572318 -15.57393432 412.01457257 -15.46072578 409.27322006 C-15.42989412 408.54950336 -15.39906246 407.82578665 -15.3672965 407.08013914 C-15.02342806 398.58635302 -15.00575609 390.09486785 -15.00474548 381.59524536 C-15.00408994 380.76858949 -15.0034344 379.94193362 -15.00275899 379.09022757 C-14.99902167 373.78761516 -15.0028987 368.48503057 -15.00893438 363.18242145 C-15.01332875 358.31991768 -15.01178621 353.45741487 -15.0110321 348.59490967 C-15.01051246 340.20747682 -15.0136001 331.82005186 -15.01926994 323.432621 C-15.02746176 311.30640273 -15.03000796 299.1801882 -15.03125793 287.05396746 C-15.03343651 267.37109985 -15.04006391 247.68823643 -15.04956055 228.00537109 C-15.05876577 208.90641297 -15.06583132 189.80745599 -15.07006836 170.70849609 C-15.07033108 169.52755356 -15.07059381 168.34661102 -15.07086449 167.12988235 C-15.0721697 161.20434103 -15.07343337 155.2787997 -15.07467639 149.35325837 C-15.08501174 100.33966936 -15.10259719 51.32608488 -15.125 2.3125 C-10.11776497 -0.35142183 -5.59153178 -0.01789863 0 0 Z " fill="#289C97" transform="translate(252.125,29.6875)"/>
</svg>
